<svg xmlns="http://www.w3.org/2000/svg" xmlns:xlink="http://www.w3.org/1999/xlink" width="5000" zoomAndPan="magnify" viewBox="0 0 3750 3749.999967" height="5000" preserveAspectRatio="xMidYMid meet" version="1.0"><defs><clipPath id="552a83dce8"><path d="M 2580 1745.15625 L 2662.5 1745.15625 L 2662.5 2004.84375 L 2580 2004.84375 Z M 2580 1745.15625 " clip-rule="nonzero"/></clipPath></defs><g clip-path="url(#552a83dce8)"><path fill="#ffffff" d="M 2580 1745.15625 L 2662.5 1745.15625 L 2662.5 2004.902344 L 2580 2004.902344 Z M 2580 1745.15625 " fill-opacity="1" fill-rule="nonzero"/></g><path fill="#151316" d="M 3400.355469 2632.042969 C 3392.015625 2814.835938 3361.449219 2914.152344 3336.0625 2980.109375 C 3301.972656 3067.5625 3261.289062 3130.109375 3195.332031 3195.699219 C 3130.109375 3261.289062 3067.5625 3301.859375 2980.109375 3335.585938 C 2914.152344 3361.335938 2814.460938 3392.015625 2631.675781 3400.722656 C 2434.066406 3409.429688 2375.511719 3411.289062 1874.394531 3411.289062 C 1373.742188 3411.289062 1314.722656 3409.429688 1117.109375 3400.722656 C 934.328125 3392.015625 835.101562 3361.335938 769.136719 3335.585938 C 681.21875 3301.859375 619.148438 3261.289062 553.558594 3195.699219 C 487.496094 3130.109375 446.832031 3067.5625 413.199219 2980.109375 C 387.8125 2914.152344 356.777344 2814.835938 348.898438 2632.042969 C 339.269531 2434.433594 337.503906 2374.953125 337.503906 1874.859375 C 337.503906 1373.742188 339.269531 1314.722656 348.898438 1117.109375 C 356.777344 934.328125 387.8125 835.101562 413.199219 768.582031 C 446.832031 681.21875 487.496094 619.050781 553.558594 553.457031 C 619.148438 487.960938 681.21875 447.285156 769.136719 413.199219 C 835.101562 387.347656 934.328125 357.144531 1117.109375 348.441406 C 1314.722656 339.726562 1373.742188 337.503906 1874.394531 337.503906 C 2375.511719 337.503906 2434.066406 339.726562 2631.675781 348.441406 C 2814.460938 357.144531 2914.152344 387.347656 2980.109375 413.199219 C 3067.5625 447.285156 3130.109375 487.960938 3195.332031 553.457031 C 3261.289062 619.050781 3301.972656 681.21875 3336.0625 768.582031 C 3361.449219 835.101562 3392.015625 934.328125 3400.355469 1117.109375 C 3409.511719 1314.722656 3411.738281 1373.742188 3411.738281 1874.859375 C 3411.738281 2374.953125 3409.511719 2434.433594 3400.355469 2632.042969 Z M 3737.855469 1101.734375 C 3728.671875 901.988281 3697.171875 765.519531 3650.402344 646.664062 C 3602.789062 523.351562 3538.945312 418.847656 3434.449219 314.34375 C 3330.398438 210.304688 3225.902344 146.472656 3102.582031 98.296875 C 2983.265625 51.972656 2847.265625 20.101562 2647.421875 11.394531 C 2447.585938 1.757812 2383.757812 0 1874.394531 0 C 1365.496094 0 1301.203125 1.757812 1101.367188 11.394531 C 901.988281 20.101562 766.078125 51.972656 646.199219 98.296875 C 523.351562 146.472656 418.847656 210.304688 314.8125 314.34375 C 210.304688 418.847656 146.472656 523.351562 98.390625 646.664062 C 52.0625 765.519531 20.566406 901.988281 10.929688 1101.734375 C 2.222656 1301.570312 0 1365.492188 0 1874.859375 C 0 2383.757812 2.222656 2447.585938 10.929688 2647.421875 C 20.566406 2846.789062 52.0625 2983.179688 98.390625 3102.582031 C 146.472656 3225.421875 210.304688 3330.398438 314.8125 3434.449219 C 418.847656 3538.46875 523.351562 3602.789062 646.199219 3650.855469 C 766.078125 3697.171875 901.988281 3728.671875 1101.367188 3737.855469 C 1301.203125 3747.042969 1365.496094 3749.238281 1874.394531 3749.238281 C 2383.757812 3749.238281 2447.585938 3747.042969 2647.421875 3737.855469 C 2847.265625 3728.671875 2983.265625 3697.171875 3102.582031 3650.855469 C 3225.902344 3602.789062 3330.398438 3538.46875 3434.449219 3434.449219 C 3538.945312 3330.398438 3602.789062 3225.421875 3650.402344 3102.582031 C 3697.171875 2983.179688 3728.671875 2846.789062 3737.855469 2647.421875 C 3747.042969 2447.585938 3749.238281 2383.757812 3749.238281 1874.859375 C 3749.238281 1365.492188 3747.042969 1301.570312 3737.855469 1101.734375 Z M 3737.855469 1101.734375 " fill-opacity="1" fill-rule="nonzero"/><path fill="#151316" d="M 1874.394531 2499.191406 C 1529.476562 2499.191406 1249.59375 2219.769531 1249.59375 1874.851562 C 1249.59375 1529.378906 1529.476562 1249.59375 1874.394531 1249.59375 C 2219.410156 1249.59375 2499.65625 1529.378906 2499.65625 1874.851562 C 2499.65625 2219.769531 2219.410156 2499.191406 1874.394531 2499.191406 Z M 1874.394531 911.628906 C 1342.703125 911.628906 912.09375 1343.164062 912.09375 1874.851562 C 912.09375 2406.082031 1342.703125 2837.152344 1874.394531 2837.152344 C 2406.082031 2837.152344 2837.152344 2406.082031 2837.152344 1874.851562 C 2837.152344 1343.164062 2406.082031 911.628906 1874.394531 911.628906 Z M 1874.394531 911.628906 " fill-opacity="1" fill-rule="nonzero"/></svg>