<svg xmlns="http://www.w3.org/2000/svg" xmlns:xlink="http://www.w3.org/1999/xlink" width="5000" zoomAndPan="magnify" viewBox="0 0 3750 3749.999967" height="5000" preserveAspectRatio="xMidYMid meet" version="1.0"><defs><clipPath id="71364e5423"><path d="M 1522.5 1352.8125 L 2085 1352.8125 L 2085 2220 L 1522.5 2220 Z M 1522.5 1352.8125 " clip-rule="nonzero"/></clipPath><clipPath id="4a889159c8"><path d="M 989.0625 5 L 2761 5 L 2761 3745 L 989.0625 3745 Z M 989.0625 5 " clip-rule="nonzero"/></clipPath></defs><g clip-path="url(#71364e5423)"><path fill="#504e50" d="M 1522.5 1352.8125 L 2085 1352.8125 L 2085 2220.730469 L 1522.5 2220.730469 Z M 1522.5 1352.8125 " fill-opacity="1" fill-rule="nonzero"/></g><g clip-path="url(#4a889159c8)"><path fill="#151316" d="M 2352.164062 621.953125 L 2760.9375 621.953125 L 2760.9375 5.648438 L 2238.964844 5.648438 L 2238.964844 8.007812 C 1552.699219 33.160156 1411.199219 417.566406 1399.40625 823.980469 L 1397.835938 823.980469 L 1397.835938 1251.621094 L 989.0625 1251.621094 L 989.0625 1868.710938 L 1397.835938 1868.710938 L 1397.835938 3744.351562 L 2131.269531 3744.351562 L 2131.269531 1868.710938 L 2657.171875 1868.710938 L 2760.9375 1251.621094 L 2131.269531 1251.621094 L 2131.269531 868.789062 C 2131.269531 732.792969 2222.457031 621.953125 2352.164062 621.953125 Z M 2352.164062 621.953125 " fill-opacity="1" fill-rule="nonzero"/></g></svg>