<svg xmlns="http://www.w3.org/2000/svg" xmlns:xlink="http://www.w3.org/1999/xlink" width="500" zoomAndPan="magnify" viewBox="0 0 375 374.999991" height="500" preserveAspectRatio="xMidYMid meet" version="1.0"><defs><filter x="0%" y="0%" width="100%" height="100%" id="9dbcb844cc"><feColorMatrix values="0 0 0 0 1 0 0 0 0 1 0 0 0 0 1 0 0 0 1 0" color-interpolation-filters="sRGB"/></filter><g/><mask id="2bce1d1da6"><g filter="url(#9dbcb844cc)"><rect x="-37.5" width="450" fill="#000000" y="-37.499999" height="449.999989" fill-opacity="0.33"/></g></mask><clipPath id="726a702adf"><path d="M 49 45 L 317 45 L 317 320 L 49 320 Z M 49 45 " clip-rule="nonzero"/></clipPath><clipPath id="88412ae5c1"><path d="M -12.277344 230.585938 L 110.210938 -4.96875 L 378.371094 134.472656 L 255.882812 370.03125 Z M -12.277344 230.585938 " clip-rule="nonzero"/></clipPath><clipPath id="e6706d8193"><path d="M -12.277344 230.585938 L 110.210938 -4.96875 L 378.371094 134.472656 L 255.882812 370.03125 Z M -12.277344 230.585938 " clip-rule="nonzero"/></clipPath><clipPath id="85ceb640e0"><rect x="0" width="366" y="0" height="364"/></clipPath><mask id="85fcd6ebb5"><g filter="url(#9dbcb844cc)"><rect x="-37.5" width="450" fill="#000000" y="-37.499999" height="449.999989" fill-opacity="0.44"/></g></mask><clipPath id="ac13103ed5"><path d="M 9 7 L 183 7 L 183 190 L 9 190 Z M 9 7 " clip-rule="nonzero"/></clipPath><clipPath id="57633c95c4"><path d="M 191.816406 192.65625 L 15.273438 205.375 L 0.773438 4.148438 L 177.316406 -8.574219 Z M 191.816406 192.65625 " clip-rule="nonzero"/></clipPath><clipPath id="075b6fad6b"><path d="M 191.816406 192.65625 L 15.273438 205.375 L 0.773438 4.148438 L 177.316406 -8.574219 Z M 191.816406 192.65625 " clip-rule="nonzero"/></clipPath><clipPath id="2df0fa84fb"><rect x="0" width="192" y="0" height="197"/></clipPath><mask id="1eaf47011f"><g filter="url(#9dbcb844cc)"><rect x="-37.5" width="450" fill="#000000" y="-37.499999" height="449.999989" fill-opacity="0.55"/></g></mask><clipPath id="f4928a5fc9"><path d="M 26 23 L 160 23 L 160 162 L 26 162 Z M 26 23 " clip-rule="nonzero"/></clipPath><clipPath id="6b3a2ef71c"><path d="M 191.644531 71.382812 L 126.328125 187.816406 L -5.800781 113.695312 L 59.511719 -2.734375 Z M 191.644531 71.382812 " clip-rule="nonzero"/></clipPath><clipPath id="f1a44c0cf2"><path d="M 191.644531 71.382812 L 126.328125 187.816406 L -5.800781 113.695312 L 59.511719 -2.734375 Z M 191.644531 71.382812 " clip-rule="nonzero"/></clipPath><clipPath id="68151c4784"><rect x="0" width="186" y="0" height="185"/></clipPath><mask id="3efe17dd66"><g filter="url(#9dbcb844cc)"><rect x="-37.5" width="450" fill="#000000" y="-37.499999" height="449.999989" fill-opacity="0.77"/></g></mask><clipPath id="5902a9e8a1"><path d="M 11 7 L 95 7 L 95 99 L 11 99 Z M 11 7 " clip-rule="nonzero"/></clipPath><clipPath id="009ea4713f"><path d="M 105.773438 94.847656 L 18.722656 110.804688 L 0.464844 11.214844 L 87.515625 -4.742188 Z M 105.773438 94.847656 " clip-rule="nonzero"/></clipPath><clipPath id="edb0ea1c43"><path d="M 105.773438 94.847656 L 18.722656 110.804688 L 0.464844 11.214844 L 87.515625 -4.742188 Z M 105.773438 94.847656 " clip-rule="nonzero"/></clipPath><clipPath id="deab9dc2f2"><rect x="0" width="106" y="0" height="107"/></clipPath><clipPath id="44edc1e0af"><path d="M 175 166 L 209 166 L 209 213 L 175 213 Z M 175 166 " clip-rule="nonzero"/></clipPath><clipPath id="32e94b4eb6"><path d="M 159.402344 180.339844 L 196.671875 156.484375 L 224.164062 199.441406 L 186.894531 223.292969 Z M 159.402344 180.339844 " clip-rule="nonzero"/></clipPath><clipPath id="49bea0749d"><path d="M 159.402344 180.339844 L 196.671875 156.484375 L 224.164062 199.441406 L 186.894531 223.292969 Z M 159.402344 180.339844 " clip-rule="nonzero"/></clipPath></defs><g fill="#000000" fill-opacity="1"><g transform="translate(160.401368, 244.114879)"><g><path d="M 5.046875 -6.296875 L 5.046875 -5.328125 L 1.875 -5.328125 L 1.875 -3.65625 L 4.703125 -3.65625 L 4.703125 -2.6875 L 1.875 -2.6875 L 1.875 -0.96875 L 5.171875 -0.96875 L 5.171875 0 L 0.859375 0 L 0.859375 -6.296875 Z M 5.046875 -6.296875 "/></g></g></g><g fill="#000000" fill-opacity="1"><g transform="translate(169.557918, 244.114879)"><g><path d="M 4.171875 -5.015625 C 3.628906 -5.296875 3.148438 -5.4375 2.734375 -5.4375 C 2.421875 -5.4375 2.171875 -5.367188 1.984375 -5.234375 C 1.804688 -5.097656 1.71875 -4.910156 1.71875 -4.671875 C 1.71875 -4.429688 1.828125 -4.226562 2.046875 -4.0625 C 2.273438 -3.90625 2.597656 -3.75 3.015625 -3.59375 C 3.328125 -3.488281 3.59375 -3.363281 3.8125 -3.21875 C 4.03125 -3.082031 4.210938 -2.890625 4.359375 -2.640625 C 4.503906 -2.398438 4.578125 -2.097656 4.578125 -1.734375 C 4.578125 -1.398438 4.492188 -1.097656 4.328125 -0.828125 C 4.160156 -0.554688 3.914062 -0.335938 3.59375 -0.171875 C 3.28125 -0.015625 2.90625 0.0625 2.46875 0.0625 C 2.09375 0.0625 1.71875 0.00390625 1.34375 -0.109375 C 0.976562 -0.222656 0.648438 -0.382812 0.359375 -0.59375 L 0.8125 -1.390625 C 1.03125 -1.222656 1.285156 -1.085938 1.578125 -0.984375 C 1.867188 -0.878906 2.132812 -0.828125 2.375 -0.828125 C 2.6875 -0.828125 2.957031 -0.898438 3.1875 -1.046875 C 3.414062 -1.191406 3.53125 -1.414062 3.53125 -1.71875 C 3.53125 -1.96875 3.429688 -2.171875 3.234375 -2.328125 C 3.046875 -2.492188 2.78125 -2.640625 2.4375 -2.765625 C 2.070312 -2.898438 1.769531 -3.03125 1.53125 -3.15625 C 1.300781 -3.289062 1.097656 -3.472656 0.921875 -3.703125 C 0.753906 -3.941406 0.671875 -4.238281 0.671875 -4.59375 C 0.671875 -5.101562 0.84375 -5.515625 1.1875 -5.828125 C 1.539062 -6.140625 2.003906 -6.3125 2.578125 -6.34375 C 2.992188 -6.34375 3.359375 -6.289062 3.671875 -6.1875 C 3.984375 -6.09375 4.273438 -5.960938 4.546875 -5.796875 Z M 4.171875 -5.015625 "/></g></g></g><g fill="#000000" fill-opacity="1"><g transform="translate(178.056722, 244.114879)"><g><path d="M 4.625 -6.296875 L 4.625 -5.328125 L 3 -5.328125 L 3 0 L 2 0 L 2 -5.328125 L 0.421875 -5.328125 L 0.421875 -6.296875 Z M 4.625 -6.296875 "/></g></g></g><g fill="#000000" fill-opacity="1"><g transform="translate(186.564175, 244.114879)"><g/></g></g><g fill="#000000" fill-opacity="1"><g transform="translate(192.795467, 244.114879)"><g><path d="M 4.453125 -0.96875 L 4.453125 0 L 0.46875 0 L 0.78125 -0.3125 C 1.351562 -0.882812 1.800781 -1.347656 2.125 -1.703125 C 2.445312 -2.066406 2.71875 -2.429688 2.9375 -2.796875 C 3.15625 -3.160156 3.265625 -3.507812 3.265625 -3.84375 C 3.265625 -4.15625 3.164062 -4.394531 2.96875 -4.5625 C 2.78125 -4.726562 2.546875 -4.8125 2.265625 -4.8125 C 1.960938 -4.8125 1.726562 -4.722656 1.5625 -4.546875 C 1.394531 -4.378906 1.3125 -4.1875 1.3125 -3.96875 C 1.3125 -3.613281 1.421875 -3.316406 1.640625 -3.078125 L 1.03125 -2.515625 C 0.820312 -2.628906 0.648438 -2.832031 0.515625 -3.125 C 0.390625 -3.425781 0.328125 -3.703125 0.328125 -3.953125 C 0.328125 -4.265625 0.410156 -4.5625 0.578125 -4.84375 C 0.742188 -5.125 0.988281 -5.347656 1.3125 -5.515625 C 1.632812 -5.691406 2.007812 -5.78125 2.4375 -5.78125 C 2.800781 -5.78125 3.125 -5.691406 3.40625 -5.515625 C 3.695312 -5.347656 3.921875 -5.125 4.078125 -4.84375 C 4.234375 -4.5625 4.3125 -4.257812 4.3125 -3.9375 C 4.3125 -3.601562 4.234375 -3.273438 4.078125 -2.953125 C 3.929688 -2.628906 3.753906 -2.328125 3.546875 -2.046875 C 3.335938 -1.773438 3.039062 -1.414062 2.65625 -0.96875 Z M 4.453125 -0.96875 "/></g></g></g><g fill="#000000" fill-opacity="1"><g transform="translate(201.103864, 244.114879)"><g><path d="M 2.703125 0.015625 C 2.242188 0.0234375 1.832031 -0.0820312 1.46875 -0.3125 C 1.101562 -0.539062 0.816406 -0.875 0.609375 -1.3125 C 0.398438 -1.75 0.296875 -2.269531 0.296875 -2.875 C 0.296875 -3.863281 0.507812 -4.59375 0.9375 -5.0625 C 1.375 -5.539062 1.960938 -5.78125 2.703125 -5.78125 C 3.171875 -5.78125 3.585938 -5.664062 3.953125 -5.4375 C 4.316406 -5.207031 4.597656 -4.875 4.796875 -4.4375 C 5.003906 -4.007812 5.109375 -3.488281 5.109375 -2.875 C 5.109375 -2.257812 5.003906 -1.734375 4.796875 -1.296875 C 4.585938 -0.859375 4.300781 -0.523438 3.9375 -0.296875 C 3.582031 -0.078125 3.171875 0.0234375 2.703125 0.015625 Z M 2.703125 -0.9375 C 3.160156 -0.9375 3.5 -1.113281 3.71875 -1.46875 C 3.945312 -1.832031 4.0625 -2.3125 4.0625 -2.90625 C 4.0625 -3.488281 3.945312 -3.953125 3.71875 -4.296875 C 3.5 -4.640625 3.160156 -4.804688 2.703125 -4.796875 C 2.253906 -4.804688 1.914062 -4.632812 1.6875 -4.28125 C 1.457031 -3.9375 1.34375 -3.46875 1.34375 -2.875 C 1.34375 -2.289062 1.457031 -1.820312 1.6875 -1.46875 C 1.914062 -1.113281 2.253906 -0.9375 2.703125 -0.9375 Z M 2.703125 -0.9375 "/></g></g></g><g fill="#000000" fill-opacity="1"><g transform="translate(209.974808, 244.114879)"><g><path d="M 2.703125 0.015625 C 2.242188 0.0234375 1.832031 -0.0820312 1.46875 -0.3125 C 1.101562 -0.539062 0.816406 -0.875 0.609375 -1.3125 C 0.398438 -1.75 0.296875 -2.269531 0.296875 -2.875 C 0.296875 -3.863281 0.507812 -4.59375 0.9375 -5.0625 C 1.375 -5.539062 1.960938 -5.78125 2.703125 -5.78125 C 3.171875 -5.78125 3.585938 -5.664062 3.953125 -5.4375 C 4.316406 -5.207031 4.597656 -4.875 4.796875 -4.4375 C 5.003906 -4.007812 5.109375 -3.488281 5.109375 -2.875 C 5.109375 -2.257812 5.003906 -1.734375 4.796875 -1.296875 C 4.585938 -0.859375 4.300781 -0.523438 3.9375 -0.296875 C 3.582031 -0.078125 3.171875 0.0234375 2.703125 0.015625 Z M 2.703125 -0.9375 C 3.160156 -0.9375 3.5 -1.113281 3.71875 -1.46875 C 3.945312 -1.832031 4.0625 -2.3125 4.0625 -2.90625 C 4.0625 -3.488281 3.945312 -3.953125 3.71875 -4.296875 C 3.5 -4.640625 3.160156 -4.804688 2.703125 -4.796875 C 2.253906 -4.804688 1.914062 -4.632812 1.6875 -4.28125 C 1.457031 -3.9375 1.34375 -3.46875 1.34375 -2.875 C 1.34375 -2.289062 1.457031 -1.820312 1.6875 -1.46875 C 1.914062 -1.113281 2.253906 -0.9375 2.703125 -0.9375 Z M 2.703125 -0.9375 "/></g></g></g><g fill="#000000" fill-opacity="1"><g transform="translate(218.845752, 244.114879)"><g><path d="M 2.75 -3.703125 C 3.039062 -3.703125 3.316406 -3.625 3.578125 -3.46875 C 3.835938 -3.3125 4.046875 -3.09375 4.203125 -2.8125 C 4.367188 -2.53125 4.453125 -2.21875 4.453125 -1.875 C 4.453125 -1.488281 4.359375 -1.144531 4.171875 -0.84375 C 3.984375 -0.550781 3.726562 -0.328125 3.40625 -0.171875 C 3.09375 -0.015625 2.765625 0.0625 2.421875 0.0625 C 2.015625 0.0625 1.648438 -0.03125 1.328125 -0.21875 C 1.015625 -0.40625 0.765625 -0.675781 0.578125 -1.03125 C 0.390625 -1.394531 0.296875 -1.816406 0.296875 -2.296875 C 0.296875 -2.972656 0.535156 -3.609375 1.015625 -4.203125 C 1.492188 -4.796875 2.109375 -5.332031 2.859375 -5.8125 L 3.546875 -5.078125 C 3.054688 -4.859375 2.644531 -4.585938 2.3125 -4.265625 C 1.988281 -3.953125 1.75 -3.625 1.59375 -3.28125 C 1.882812 -3.5625 2.269531 -3.703125 2.75 -3.703125 Z M 2.375 -0.828125 C 2.675781 -0.828125 2.921875 -0.921875 3.109375 -1.109375 C 3.304688 -1.304688 3.40625 -1.5625 3.40625 -1.875 C 3.40625 -2.164062 3.304688 -2.398438 3.109375 -2.578125 C 2.921875 -2.765625 2.675781 -2.859375 2.375 -2.859375 C 2.082031 -2.859375 1.832031 -2.769531 1.625 -2.59375 C 1.425781 -2.425781 1.328125 -2.222656 1.328125 -1.984375 L 1.328125 -1.8125 C 1.328125 -1.644531 1.375 -1.484375 1.46875 -1.328125 C 1.5625 -1.179688 1.6875 -1.0625 1.84375 -0.96875 C 2.007812 -0.875 2.1875 -0.828125 2.375 -0.828125 Z M 2.375 -0.828125 "/></g></g></g><g mask="url(#2bce1d1da6)"><g transform="matrix(1, 0, 0, 1, 9, 5)"><g clip-path="url(#85ceb640e0)"><g clip-path="url(#726a702adf)"><g clip-path="url(#88412ae5c1)"><g clip-path="url(#e6706d8193)"><path fill="#5d5d5d" d="M 49.746094 150.820312 C 50.257812 148.660156 50.824219 146.519531 51.441406 144.386719 C 52.0625 142.257812 52.730469 140.144531 53.449219 138.046875 C 54.171875 135.949219 54.941406 133.871094 55.761719 131.8125 C 56.585938 129.753906 57.457031 127.714844 58.375 125.695312 C 59.296875 123.679688 60.265625 121.683594 61.285156 119.714844 C 62.300781 117.742188 63.367188 115.800781 64.476562 113.878906 C 65.589844 111.960938 66.746094 110.070312 67.953125 108.207031 C 69.15625 106.347656 70.402344 104.515625 71.695312 102.710938 C 72.988281 100.910156 74.324219 99.140625 75.703125 97.40625 C 77.082031 95.667969 78.503906 93.964844 79.964844 92.296875 C 81.425781 90.628906 82.925781 89 84.46875 87.402344 C 86.007812 85.808594 87.585938 84.25 89.203125 82.734375 C 90.820312 81.214844 92.472656 79.738281 94.160156 78.300781 C 95.847656 76.863281 97.570312 75.464844 99.328125 74.109375 C 101.082031 72.757812 102.871094 71.445312 104.691406 70.179688 C 106.511719 68.910156 108.359375 67.6875 110.238281 66.511719 C 112.117188 65.332031 114.023438 64.203125 115.957031 63.117188 C 117.894531 62.03125 119.851562 60.996094 121.835938 60.007812 C 123.820312 59.015625 125.828125 58.074219 127.859375 57.183594 C 129.890625 56.292969 131.941406 55.449219 134.011719 54.65625 C 136.082031 53.863281 138.171875 53.121094 140.277344 52.429688 C 142.386719 51.742188 144.507812 51.101562 146.648438 50.511719 C 148.785156 49.925781 150.9375 49.390625 153.101562 48.90625 C 155.265625 48.421875 157.441406 47.992188 159.625 47.617188 C 161.808594 47.238281 164.003906 46.914062 166.203125 46.640625 C 168.40625 46.371094 170.609375 46.152344 172.824219 45.988281 C 175.035156 45.824219 177.25 45.714844 179.464844 45.660156 C 181.683594 45.601562 183.898438 45.601562 186.117188 45.652344 C 188.332031 45.703125 190.546875 45.808594 192.757812 45.96875 C 194.972656 46.128906 197.179688 46.339844 199.378906 46.605469 C 201.582031 46.871094 203.773438 47.191406 205.960938 47.566406 C 208.148438 47.9375 210.324219 48.363281 212.488281 48.84375 C 213.289062 49.015625 214.097656 49.207031 214.921875 49.40625 L 214.601562 51.597656 C 213.742188 51.390625 212.878906 51.1875 212.007812 50.996094 C 209.863281 50.523438 207.707031 50.101562 205.539062 49.730469 C 203.371094 49.363281 201.199219 49.046875 199.015625 48.785156 C 196.835938 48.519531 194.648438 48.3125 192.453125 48.15625 C 190.261719 48 188.066406 47.898438 185.871094 47.847656 C 183.671875 47.800781 181.476562 47.808594 179.277344 47.867188 C 177.082031 47.925781 174.886719 48.039062 172.695312 48.207031 C 170.503906 48.371094 168.316406 48.59375 166.136719 48.867188 C 163.957031 49.140625 161.78125 49.46875 159.617188 49.847656 C 157.453125 50.226562 155.300781 50.660156 153.15625 51.144531 C 151.011719 51.632812 148.882812 52.167969 146.765625 52.757812 C 144.648438 53.347656 142.546875 53.992188 140.460938 54.683594 C 138.375 55.375 136.304688 56.121094 134.257812 56.914062 C 132.207031 57.707031 130.179688 58.550781 128.171875 59.445312 C 126.160156 60.339844 124.175781 61.28125 122.214844 62.273438 C 120.253906 63.261719 118.316406 64.300781 116.40625 65.386719 C 114.492188 66.472656 112.609375 67.605469 110.753906 68.78125 C 108.898438 69.957031 107.074219 71.179688 105.277344 72.449219 C 103.480469 73.714844 101.71875 75.027344 99.984375 76.378906 C 98.253906 77.734375 96.554688 79.128906 94.894531 80.566406 C 93.230469 82 91.601562 83.476562 90.011719 84.992188 C 88.421875 86.511719 86.867188 88.066406 85.351562 89.65625 C 83.835938 91.25 82.363281 92.878906 80.925781 94.542969 C 79.492188 96.207031 78.097656 97.90625 76.746094 99.636719 C 75.394531 101.371094 74.085938 103.136719 72.820312 104.933594 C 71.554688 106.730469 70.332031 108.554688 69.15625 110.414062 C 67.980469 112.269531 66.847656 114.15625 65.765625 116.066406 C 64.679688 117.976562 63.644531 119.914062 62.65625 121.878906 C 61.667969 123.839844 60.726562 125.828125 59.832031 127.835938 C 58.941406 129.84375 58.101562 131.875 57.308594 133.925781 C 56.515625 135.972656 55.773438 138.042969 55.082031 140.128906 C 54.390625 142.214844 53.75 144.316406 53.164062 146.433594 C 52.574219 148.554688 52.039062 150.683594 51.554688 152.828125 C 50.964844 152.148438 50.371094 151.476562 49.75 150.820312 Z M 151.707031 313.5 C 152.414062 313.667969 153.117188 313.832031 153.832031 313.988281 C 155.984375 314.464844 158.144531 314.886719 160.316406 315.257812 C 162.488281 315.628906 164.667969 315.945312 166.855469 316.207031 C 169.042969 316.46875 171.238281 316.679688 173.433594 316.832031 C 175.632812 316.988281 177.832031 317.089844 180.035156 317.136719 C 182.238281 317.183594 184.441406 317.175781 186.644531 317.117188 C 188.847656 317.054688 191.046875 316.941406 193.242188 316.773438 C 195.441406 316.601562 197.632812 316.378906 199.820312 316.105469 C 202.003906 315.828125 204.183594 315.496094 206.351562 315.113281 C 208.523438 314.730469 210.679688 314.292969 212.828125 313.804688 C 214.976562 313.316406 217.113281 312.773438 219.234375 312.179688 C 221.355469 311.585938 223.464844 310.941406 225.554688 310.242188 C 227.644531 309.542969 229.714844 308.796875 231.769531 307.996094 C 233.820312 307.199219 235.855469 306.347656 237.867188 305.449219 C 239.878906 304.550781 241.867188 303.601562 243.832031 302.605469 C 245.796875 301.609375 247.738281 300.566406 249.652344 299.472656 C 251.566406 298.382812 253.449219 297.246094 255.308594 296.058594 C 257.167969 294.875 258.996094 293.648438 260.792969 292.371094 C 262.589844 291.097656 264.355469 289.78125 266.089844 288.421875 C 267.820312 287.058594 269.519531 285.65625 271.183594 284.214844 C 272.847656 282.769531 274.476562 281.285156 276.070312 279.761719 C 277.660156 278.238281 279.214844 276.675781 280.726562 275.074219 C 282.242188 273.476562 283.71875 271.839844 285.152344 270.167969 C 286.585938 268.492188 287.980469 266.785156 289.328125 265.046875 C 290.679688 263.304688 291.988281 261.53125 293.25 259.726562 C 294.515625 257.921875 295.734375 256.085938 296.90625 254.222656 C 298.082031 252.355469 299.207031 250.464844 300.289062 248.542969 C 301.371094 246.625 302.402344 244.679688 303.386719 242.707031 C 304.375 240.738281 305.308594 238.742188 306.195312 236.726562 C 307.085938 234.710938 307.921875 232.671875 308.710938 230.613281 C 309.496094 228.554688 310.234375 226.480469 310.917969 224.386719 C 311.605469 222.292969 312.238281 220.183594 312.820312 218.054688 C 313.402344 215.929688 313.929688 213.792969 314.40625 211.640625 C 314.992188 212.332031 315.585938 213.015625 316.199219 213.683594 C 315.691406 215.847656 315.132812 217.996094 314.519531 220.132812 C 313.910156 222.269531 313.246094 224.390625 312.53125 226.496094 C 311.816406 228.601562 311.050781 230.6875 310.234375 232.753906 C 309.417969 234.820312 308.550781 236.867188 307.636719 238.890625 C 306.71875 240.917969 305.753906 242.917969 304.738281 244.898438 C 303.726562 246.875 302.664062 248.828125 301.554688 250.753906 C 300.449219 252.679688 299.292969 254.578125 298.089844 256.449219 C 296.890625 258.320312 295.644531 260.160156 294.351562 261.96875 C 293.0625 263.777344 291.726562 265.554688 290.351562 267.296875 C 288.972656 269.042969 287.554688 270.753906 286.09375 272.429688 C 284.632812 274.105469 283.132812 275.742188 281.59375 277.34375 C 280.050781 278.945312 278.472656 280.511719 276.855469 282.035156 C 275.238281 283.5625 273.585938 285.046875 271.898438 286.492188 C 270.210938 287.9375 268.484375 289.339844 266.730469 290.699219 C 264.972656 292.0625 263.183594 293.378906 261.359375 294.652344 C 259.539062 295.925781 257.6875 297.15625 255.804688 298.339844 C 253.925781 299.523438 252.015625 300.660156 250.078125 301.75 C 248.144531 302.839844 246.179688 303.882812 244.195312 304.878906 C 242.207031 305.875 240.195312 306.820312 238.160156 307.71875 C 236.128906 308.617188 234.074219 309.464844 232 310.261719 C 229.925781 311.058594 227.832031 311.804688 225.71875 312.5 C 223.609375 313.195312 221.484375 313.835938 219.339844 314.429688 C 217.199219 315.019531 215.042969 315.558594 212.875 316.046875 C 210.703125 316.535156 208.523438 316.96875 206.335938 317.347656 C 204.144531 317.726562 201.949219 318.054688 199.742188 318.328125 C 197.535156 318.601562 195.324219 318.824219 193.109375 318.988281 C 190.890625 319.152344 188.671875 319.265625 186.449219 319.324219 C 184.230469 319.382812 182.007812 319.386719 179.785156 319.335938 C 177.5625 319.285156 175.34375 319.179688 173.125 319.019531 C 170.910156 318.863281 168.695312 318.648438 166.492188 318.382812 C 164.285156 318.117188 162.085938 317.796875 159.894531 317.425781 C 157.703125 317.050781 155.523438 316.625 153.351562 316.144531 C 152.699219 316 152.042969 315.847656 151.394531 315.695312 Z M 151.707031 313.5 " fill-opacity="1" fill-rule="evenodd"/></g></g></g></g></g></g><g mask="url(#85fcd6ebb5)"><g transform="matrix(1, 0, 0, 1, 96, 89)"><g clip-path="url(#2df0fa84fb)"><g clip-path="url(#ac13103ed5)"><g clip-path="url(#57633c95c4)"><g clip-path="url(#075b6fad6b)"><path fill="#5d5d5d" d="M 124.726562 185.28125 C 123.320312 185.746094 121.902344 186.175781 120.476562 186.566406 C 119.046875 186.960938 117.613281 187.320312 116.167969 187.644531 C 114.71875 187.96875 113.269531 188.257812 111.808594 188.511719 C 110.347656 188.765625 108.886719 188.980469 107.414062 189.164062 C 105.945312 189.347656 104.472656 189.492188 102.996094 189.605469 C 101.515625 189.714844 100.039062 189.789062 98.558594 189.828125 C 97.078125 189.867188 95.597656 189.871094 94.113281 189.835938 C 92.632812 189.804688 91.15625 189.734375 89.675781 189.628906 C 88.199219 189.523438 86.726562 189.382812 85.253906 189.207031 C 83.785156 189.03125 82.320312 188.816406 80.859375 188.570312 C 79.398438 188.324219 77.945312 188.039062 76.5 187.722656 C 75.050781 187.402344 73.613281 187.050781 72.183594 186.660156 C 70.753906 186.273438 69.335938 185.847656 67.925781 185.390625 C 66.519531 184.933594 65.121094 184.445312 63.734375 183.917969 C 62.351562 183.394531 60.980469 182.835938 59.621094 182.242188 C 58.265625 181.652344 56.921875 181.027344 55.59375 180.371094 C 54.265625 179.710938 52.957031 179.023438 51.660156 178.304688 C 50.367188 177.582031 49.089844 176.832031 47.832031 176.046875 C 46.578125 175.265625 45.339844 174.453125 44.121094 173.609375 C 42.902344 172.765625 41.707031 171.894531 40.53125 170.992188 C 39.355469 170.09375 38.199219 169.164062 37.070312 168.207031 C 35.941406 167.25 34.832031 166.265625 33.75 165.253906 C 32.667969 164.242188 31.609375 163.207031 30.578125 162.144531 C 29.546875 161.082031 28.539062 159.996094 27.558594 158.886719 C 26.582031 157.773438 25.628906 156.640625 24.703125 155.480469 C 23.78125 154.324219 22.882812 153.144531 22.015625 151.945312 C 21.148438 150.742188 20.3125 149.523438 19.503906 148.28125 C 18.695312 147.039062 17.917969 145.777344 17.171875 144.5 C 16.425781 143.21875 15.710938 141.925781 15.027344 140.609375 C 14.34375 139.296875 13.691406 137.964844 13.074219 136.621094 C 12.457031 135.273438 11.871094 133.914062 11.316406 132.539062 C 10.761719 131.167969 10.246094 129.777344 9.757812 128.378906 C 9.578125 127.863281 9.402344 127.335938 9.226562 126.796875 L 10.585938 126.210938 C 10.769531 126.773438 10.957031 127.335938 11.152344 127.898438 C 11.632812 129.285156 12.148438 130.660156 12.695312 132.023438 C 13.246094 133.382812 13.824219 134.730469 14.441406 136.066406 C 15.054688 137.398438 15.699219 138.714844 16.378906 140.019531 C 17.058594 141.320312 17.769531 142.605469 18.507812 143.871094 C 19.25 145.136719 20.023438 146.386719 20.824219 147.617188 C 21.628906 148.84375 22.460938 150.054688 23.320312 151.242188 C 24.183594 152.429688 25.074219 153.597656 25.992188 154.742188 C 26.914062 155.886719 27.859375 157.007812 28.832031 158.109375 C 29.804688 159.207031 30.804688 160.28125 31.832031 161.332031 C 32.859375 162.378906 33.910156 163.402344 34.988281 164.402344 C 36.0625 165.398438 37.164062 166.371094 38.289062 167.316406 C 39.414062 168.257812 40.558594 169.175781 41.730469 170.0625 C 42.898438 170.953125 44.085938 171.8125 45.296875 172.640625 C 46.511719 173.46875 47.742188 174.269531 48.992188 175.039062 C 50.242188 175.808594 51.507812 176.546875 52.796875 177.253906 C 54.082031 177.960938 55.386719 178.636719 56.703125 179.28125 C 58.023438 179.925781 59.359375 180.535156 60.707031 181.113281 C 62.058594 181.691406 63.417969 182.238281 64.796875 182.75 C 66.171875 183.261719 67.558594 183.738281 68.960938 184.183594 C 70.359375 184.625 71.769531 185.035156 73.1875 185.410156 C 74.605469 185.785156 76.035156 186.125 77.472656 186.429688 C 78.90625 186.734375 80.351562 187.003906 81.800781 187.238281 C 83.25 187.472656 84.703125 187.667969 86.160156 187.832031 C 87.621094 187.996094 89.082031 188.121094 90.546875 188.214844 C 92.011719 188.304688 93.480469 188.359375 94.949219 188.378906 C 96.414062 188.398438 97.882812 188.382812 99.351562 188.332031 C 100.816406 188.277344 102.28125 188.191406 103.746094 188.066406 C 105.207031 187.941406 106.667969 187.78125 108.121094 187.585938 C 109.578125 187.390625 111.027344 187.160156 112.46875 186.894531 C 113.914062 186.625 115.351562 186.324219 116.78125 185.988281 C 118.207031 185.652344 119.628906 185.28125 121.039062 184.875 C 122.449219 184.46875 123.851562 184.027344 125.238281 183.550781 C 125.058594 184.125 124.882812 184.695312 124.726562 185.277344 Z M 181.601562 70.34375 C 181.449219 69.882812 181.296875 69.425781 181.136719 68.964844 C 180.65625 67.574219 180.140625 66.195312 179.589844 64.828125 C 179.039062 63.464844 178.457031 62.113281 177.839844 60.777344 C 177.226562 59.441406 176.578125 58.121094 175.894531 56.816406 C 175.214844 55.511719 174.503906 54.222656 173.757812 52.953125 C 173.015625 51.683594 172.238281 50.433594 171.433594 49.199219 C 170.628906 47.96875 169.792969 46.757812 168.929688 45.566406 C 168.0625 44.375 167.167969 43.207031 166.246094 42.058594 C 165.324219 40.914062 164.375 39.789062 163.398438 38.6875 C 162.421875 37.589844 161.417969 36.511719 160.386719 35.460938 C 159.355469 34.410156 158.300781 33.386719 157.21875 32.386719 C 156.140625 31.386719 155.035156 30.414062 153.90625 29.46875 C 152.777344 28.523438 151.628906 27.609375 150.453125 26.71875 C 149.28125 25.832031 148.085938 24.972656 146.871094 24.140625 C 145.65625 23.3125 144.421875 22.511719 143.164062 21.742188 C 141.910156 20.972656 140.636719 20.234375 139.347656 19.527344 C 138.054688 18.820312 136.75 18.144531 135.425781 17.503906 C 134.101562 16.859375 132.761719 16.25 131.40625 15.675781 C 130.054688 15.097656 128.6875 14.554688 127.304688 14.042969 C 125.925781 13.535156 124.53125 13.058594 123.128906 12.617188 C 121.726562 12.175781 120.3125 11.769531 118.886719 11.394531 C 117.464844 11.023438 116.03125 10.6875 114.589844 10.386719 C 113.148438 10.082031 111.703125 9.816406 110.25 9.585938 C 108.796875 9.355469 107.335938 9.160156 105.875 9 C 104.410156 8.84375 102.945312 8.71875 101.476562 8.632812 C 100.007812 8.542969 98.535156 8.492188 97.0625 8.476562 C 95.59375 8.464844 94.121094 8.484375 92.652344 8.542969 C 91.179688 8.597656 89.710938 8.691406 88.246094 8.820312 C 86.777344 8.949219 85.316406 9.113281 83.859375 9.316406 C 82.402344 9.515625 80.949219 9.753906 79.503906 10.027344 C 78.054688 10.296875 76.617188 10.605469 75.1875 10.949219 C 73.753906 11.289062 72.332031 11.667969 70.921875 12.082031 C 69.507812 12.492188 68.105469 12.941406 66.714844 13.421875 C 66.902344 12.847656 67.085938 12.273438 67.25 11.6875 C 68.65625 11.21875 70.078125 10.785156 71.507812 10.386719 C 72.9375 9.984375 74.375 9.621094 75.824219 9.292969 C 77.269531 8.960938 78.722656 8.667969 80.1875 8.410156 C 81.648438 8.148438 83.117188 7.925781 84.589844 7.738281 C 86.0625 7.550781 87.539062 7.402344 89.019531 7.285156 C 90.496094 7.167969 91.980469 7.089844 93.464844 7.046875 C 94.949219 7.003906 96.433594 6.996094 97.917969 7.027344 C 99.402344 7.054688 100.882812 7.121094 102.363281 7.21875 C 103.847656 7.320312 105.324219 7.460938 106.796875 7.632812 C 108.273438 7.804688 109.742188 8.015625 111.207031 8.257812 C 112.671875 8.503906 114.128906 8.785156 115.578125 9.101562 C 117.03125 9.414062 118.472656 9.765625 119.90625 10.152344 C 121.339844 10.539062 122.761719 10.957031 124.175781 11.414062 C 125.589844 11.867188 126.988281 12.359375 128.378906 12.882812 C 129.769531 13.40625 131.144531 13.960938 132.507812 14.554688 C 133.867188 15.144531 135.214844 15.765625 136.546875 16.421875 C 137.878906 17.078125 139.195312 17.765625 140.492188 18.488281 C 141.789062 19.207031 143.070312 19.957031 144.332031 20.742188 C 145.59375 21.523438 146.835938 22.335938 148.058594 23.179688 C 149.28125 24.023438 150.480469 24.894531 151.660156 25.796875 C 152.839844 26.699219 153.996094 27.628906 155.132812 28.585938 C 156.265625 29.542969 157.375 30.527344 158.464844 31.539062 C 159.550781 32.550781 160.609375 33.589844 161.644531 34.652344 C 162.683594 35.714844 163.691406 36.804688 164.675781 37.917969 C 165.65625 39.03125 166.613281 40.164062 167.539062 41.324219 C 168.46875 42.484375 169.367188 43.664062 170.238281 44.867188 C 171.105469 46.070312 171.945312 47.292969 172.757812 48.539062 C 173.566406 49.78125 174.347656 51.046875 175.097656 52.328125 C 175.84375 53.609375 176.5625 54.910156 177.246094 56.226562 C 177.933594 57.542969 178.585938 58.875 179.207031 60.222656 C 179.828125 61.570312 180.414062 62.933594 180.96875 64.3125 C 181.523438 65.691406 182.046875 67.078125 182.53125 68.480469 C 182.675781 68.90625 182.820312 69.332031 182.960938 69.753906 Z M 181.601562 70.34375 " fill-opacity="1" fill-rule="evenodd"/></g></g></g></g></g></g><g mask="url(#1eaf47011f)"><g transform="matrix(1, 0, 0, 1, 99, 95)"><g clip-path="url(#68151c4784)"><g clip-path="url(#f4928a5fc9)"><g clip-path="url(#6b3a2ef71c)"><g clip-path="url(#f1a44c0cf2)"><path fill="#5d5d5d" d="M 159.28125 110.382812 C 158.992188 111.457031 158.671875 112.523438 158.328125 113.578125 C 157.984375 114.636719 157.617188 115.6875 157.222656 116.726562 C 156.828125 117.765625 156.410156 118.796875 155.964844 119.816406 C 155.519531 120.835938 155.050781 121.84375 154.554688 122.839844 C 154.0625 123.835938 153.546875 124.820312 153.003906 125.792969 C 152.464844 126.761719 151.898438 127.722656 151.308594 128.664062 C 150.722656 129.609375 150.113281 130.539062 149.480469 131.453125 C 148.847656 132.367188 148.191406 133.265625 147.515625 134.148438 C 146.835938 135.03125 146.140625 135.898438 145.421875 136.746094 C 144.703125 137.59375 143.964844 138.425781 143.203125 139.238281 C 142.445312 140.050781 141.667969 140.84375 140.867188 141.621094 C 140.070312 142.394531 139.253906 143.148438 138.421875 143.882812 C 137.585938 144.621094 136.734375 145.335938 135.867188 146.027344 C 134.996094 146.722656 134.109375 147.394531 133.210938 148.046875 C 132.308594 148.695312 131.390625 149.324219 130.457031 149.933594 C 129.527344 150.539062 128.578125 151.121094 127.617188 151.683594 C 126.65625 152.242188 125.683594 152.777344 124.699219 153.292969 C 123.710938 153.804688 122.710938 154.292969 121.703125 154.757812 C 120.691406 155.222656 119.667969 155.664062 118.636719 156.078125 C 117.605469 156.492188 116.566406 156.882812 115.515625 157.246094 C 114.464844 157.609375 113.402344 157.949219 112.335938 158.261719 C 111.269531 158.574219 110.195312 158.863281 109.113281 159.121094 C 108.03125 159.382812 106.945312 159.617188 105.851562 159.824219 C 104.761719 160.03125 103.664062 160.214844 102.5625 160.367188 C 101.460938 160.523438 100.355469 160.652344 99.25 160.75 C 98.140625 160.851562 97.03125 160.925781 95.921875 160.972656 C 94.808594 161.019531 93.699219 161.039062 92.585938 161.035156 C 91.472656 161.027344 90.363281 160.992188 89.25 160.929688 C 88.140625 160.871094 87.03125 160.78125 85.925781 160.667969 C 84.820312 160.550781 83.71875 160.410156 82.617188 160.242188 C 81.519531 160.074219 80.425781 159.878906 79.335938 159.65625 C 78.246094 159.433594 77.160156 159.1875 76.082031 158.914062 C 75.683594 158.8125 75.28125 158.707031 74.871094 158.59375 L 75.066406 157.496094 C 75.496094 157.617188 75.925781 157.730469 76.359375 157.839844 C 77.425781 158.113281 78.5 158.359375 79.582031 158.578125 C 80.660156 158.796875 81.746094 158.992188 82.835938 159.15625 C 83.925781 159.324219 85.019531 159.460938 86.113281 159.574219 C 87.210938 159.6875 88.308594 159.773438 89.410156 159.832031 C 90.511719 159.894531 91.613281 159.925781 92.714844 159.929688 C 93.816406 159.9375 94.917969 159.914062 96.019531 159.863281 C 97.121094 159.816406 98.21875 159.742188 99.316406 159.636719 C 100.414062 159.535156 101.511719 159.40625 102.601562 159.25 C 103.691406 159.09375 104.777344 158.910156 105.863281 158.703125 C 106.945312 158.492188 108.019531 158.257812 109.089844 157.996094 C 110.160156 157.730469 111.226562 157.445312 112.28125 157.128906 C 113.339844 156.816406 114.386719 156.476562 115.425781 156.109375 C 116.464844 155.746094 117.496094 155.355469 118.519531 154.9375 C 119.539062 154.523438 120.546875 154.082031 121.546875 153.617188 C 122.546875 153.152344 123.535156 152.660156 124.507812 152.148438 C 125.484375 151.632812 126.445312 151.097656 127.394531 150.535156 C 128.34375 149.976562 129.28125 149.390625 130.199219 148.785156 C 131.121094 148.179688 132.023438 147.550781 132.914062 146.898438 C 133.804688 146.246094 134.675781 145.574219 135.535156 144.882812 C 136.390625 144.1875 137.230469 143.472656 138.050781 142.738281 C 138.875 142.003906 139.675781 141.25 140.460938 140.476562 C 141.246094 139.703125 142.011719 138.910156 142.757812 138.097656 C 143.503906 137.285156 144.230469 136.457031 144.933594 135.609375 C 145.640625 134.761719 146.324219 133.898438 146.988281 133.015625 C 147.648438 132.136719 148.292969 131.242188 148.910156 130.328125 C 149.53125 129.417969 150.125 128.488281 150.699219 127.546875 C 151.273438 126.609375 151.824219 125.652344 152.351562 124.683594 C 152.878906 123.714844 153.382812 122.734375 153.859375 121.742188 C 154.339844 120.75 154.792969 119.746094 155.222656 118.730469 C 155.652344 117.714844 156.058594 116.691406 156.4375 115.65625 C 156.816406 114.621094 157.171875 113.578125 157.5 112.527344 C 157.828125 111.472656 158.132812 110.414062 158.40625 109.347656 C 158.691406 109.699219 158.980469 110.042969 159.28125 110.382812 Z M 110.757812 27.214844 C 110.40625 27.121094 110.058594 27.027344 109.703125 26.933594 C 108.632812 26.664062 107.554688 26.417969 106.472656 26.195312 C 105.386719 25.976562 104.300781 25.78125 103.207031 25.617188 C 102.117188 25.449219 101.019531 25.308594 99.921875 25.199219 C 98.820312 25.085938 97.71875 25 96.617188 24.941406 C 95.511719 24.882812 94.410156 24.851562 93.304688 24.847656 C 92.199219 24.839844 91.09375 24.863281 89.988281 24.914062 C 88.886719 24.964844 87.785156 25.039062 86.683594 25.144531 C 85.582031 25.246094 84.488281 25.378906 83.394531 25.535156 C 82.300781 25.695312 81.210938 25.878906 80.125 26.089844 C 79.039062 26.300781 77.960938 26.539062 76.886719 26.800781 C 75.816406 27.066406 74.75 27.355469 73.691406 27.671875 C 72.632812 27.988281 71.582031 28.332031 70.539062 28.699219 C 69.496094 29.066406 68.464844 29.460938 67.441406 29.878906 C 66.417969 30.296875 65.40625 30.742188 64.40625 31.210938 C 63.40625 31.679688 62.417969 32.171875 61.441406 32.6875 C 60.464844 33.203125 59.5 33.746094 58.550781 34.308594 C 57.597656 34.875 56.664062 35.460938 55.742188 36.070312 C 54.820312 36.679688 53.914062 37.3125 53.023438 37.96875 C 52.132812 38.621094 51.261719 39.296875 50.402344 39.996094 C 49.546875 40.691406 48.707031 41.410156 47.882812 42.148438 C 47.0625 42.886719 46.257812 43.644531 45.472656 44.425781 C 44.6875 45.203125 43.921875 46 43.179688 46.8125 C 42.433594 47.628906 41.707031 48.464844 41.003906 49.316406 C 40.296875 50.164062 39.613281 51.035156 38.953125 51.917969 C 38.289062 52.804688 37.648438 53.703125 37.03125 54.621094 C 36.414062 55.535156 35.820312 56.464844 35.246094 57.410156 C 34.675781 58.359375 34.125 59.316406 33.601562 60.289062 C 33.074219 61.261719 32.574219 62.246094 32.097656 63.242188 C 31.621094 64.238281 31.167969 65.246094 30.742188 66.265625 C 30.3125 67.285156 29.910156 68.3125 29.535156 69.351562 C 29.15625 70.390625 28.804688 71.4375 28.480469 72.496094 C 28.15625 73.550781 27.855469 74.613281 27.582031 75.6875 C 27.300781 75.332031 27.015625 74.980469 26.714844 74.632812 C 27.003906 73.558594 27.320312 72.488281 27.660156 71.425781 C 28 70.367188 28.367188 69.3125 28.757812 68.269531 C 29.152344 67.226562 29.566406 66.191406 30.011719 65.167969 C 30.453125 64.144531 30.917969 63.132812 31.410156 62.132812 C 31.902344 61.132812 32.417969 60.144531 32.957031 59.167969 C 33.496094 58.195312 34.058594 57.234375 34.644531 56.285156 C 35.234375 55.335938 35.84375 54.402344 36.472656 53.484375 C 37.105469 52.566406 37.757812 51.664062 38.433594 50.777344 C 39.109375 49.890625 39.808594 49.023438 40.527344 48.167969 C 41.246094 47.316406 41.984375 46.480469 42.742188 45.664062 C 43.5 44.847656 44.277344 44.050781 45.078125 43.273438 C 45.875 42.492188 46.691406 41.734375 47.523438 40.996094 C 48.359375 40.257812 49.210938 39.539062 50.082031 38.839844 C 50.949219 38.144531 51.835938 37.46875 52.738281 36.8125 C 53.640625 36.160156 54.558594 35.527344 55.492188 34.917969 C 56.425781 34.308594 57.375 33.722656 58.335938 33.160156 C 59.296875 32.59375 60.273438 32.054688 61.261719 31.539062 C 62.25 31.023438 63.25 30.53125 64.261719 30.066406 C 65.273438 29.597656 66.296875 29.15625 67.328125 28.738281 C 68.363281 28.320312 69.40625 27.929688 70.460938 27.5625 C 71.511719 27.195312 72.574219 26.855469 73.640625 26.539062 C 74.710938 26.222656 75.789062 25.9375 76.871094 25.671875 C 77.953125 25.410156 79.042969 25.175781 80.140625 24.964844 C 81.234375 24.753906 82.332031 24.574219 83.4375 24.417969 C 84.539062 24.261719 85.648438 24.132812 86.757812 24.03125 C 87.867188 23.929688 88.980469 23.851562 90.09375 23.804688 C 91.207031 23.757812 92.320312 23.738281 93.4375 23.742188 C 94.550781 23.75 95.664062 23.78125 96.777344 23.84375 C 97.890625 23.902344 99 23.992188 100.109375 24.105469 C 101.21875 24.222656 102.324219 24.363281 103.425781 24.53125 C 104.527344 24.699219 105.625 24.894531 106.71875 25.117188 C 107.808594 25.339844 108.898438 25.585938 109.976562 25.863281 C 110.300781 25.945312 110.628906 26.03125 110.949219 26.117188 Z M 110.757812 27.214844 " fill-opacity="1" fill-rule="evenodd"/></g></g></g></g></g></g><g mask="url(#3efe17dd66)"><g transform="matrix(1, 0, 0, 1, 138, 136)"><g clip-path="url(#deab9dc2f2)"><g clip-path="url(#5902a9e8a1)"><g clip-path="url(#009ea4713f)"><g clip-path="url(#edb0ea1c43)"><path fill="#5d5d5d" d="M 71.996094 94.839844 C 70.644531 95.453125 69.269531 96 67.867188 96.480469 C 66.460938 96.960938 65.039062 97.375 63.597656 97.714844 C 62.152344 98.058594 60.695312 98.328125 59.226562 98.53125 C 57.757812 98.730469 56.28125 98.859375 54.796875 98.917969 C 53.316406 98.972656 51.835938 98.957031 50.351562 98.871094 C 48.871094 98.785156 47.398438 98.625 45.933594 98.394531 C 44.46875 98.164062 43.019531 97.863281 41.582031 97.492188 C 40.144531 97.121094 38.730469 96.679688 37.335938 96.171875 C 35.945312 95.664062 34.578125 95.085938 33.242188 94.445312 C 31.902344 93.804688 30.601562 93.097656 29.332031 92.332031 C 28.0625 91.5625 26.835938 90.734375 25.644531 89.847656 C 24.457031 88.957031 23.316406 88.015625 22.21875 87.015625 C 21.121094 86.015625 20.078125 84.96875 19.082031 83.867188 C 18.089844 82.765625 17.148438 81.621094 16.265625 80.425781 C 15.382812 79.234375 14.558594 78.003906 13.796875 76.730469 C 13.035156 75.460938 12.332031 74.152344 11.699219 72.8125 C 11.578125 72.566406 11.464844 72.3125 11.347656 72.054688 L 11.992188 71.691406 C 12.113281 71.960938 12.238281 72.230469 12.363281 72.496094 C 12.996094 73.824219 13.6875 75.121094 14.445312 76.378906 C 15.203125 77.640625 16.019531 78.863281 16.898438 80.042969 C 17.773438 81.222656 18.707031 82.355469 19.695312 83.445312 C 20.679688 84.535156 21.71875 85.574219 22.808594 86.558594 C 23.898438 87.546875 25.035156 88.476562 26.214844 89.355469 C 27.394531 90.230469 28.617188 91.046875 29.878906 91.800781 C 31.136719 92.558594 32.433594 93.25 33.761719 93.882812 C 35.089844 94.511719 36.445312 95.074219 37.832031 95.570312 C 39.214844 96.066406 40.621094 96.492188 42.046875 96.851562 C 43.472656 97.210938 44.910156 97.5 46.363281 97.71875 C 47.820312 97.9375 49.28125 98.082031 50.75 98.15625 C 52.214844 98.230469 53.683594 98.234375 55.152344 98.164062 C 56.621094 98.09375 58.085938 97.953125 59.539062 97.742188 C 60.992188 97.527344 62.433594 97.246094 63.863281 96.890625 C 65.289062 96.539062 66.695312 96.117188 68.082031 95.625 C 69.464844 95.132812 70.824219 94.574219 72.15625 93.949219 C 72.097656 94.246094 72.042969 94.539062 71.996094 94.835938 Z M 94.007812 34.558594 C 93.910156 34.335938 93.808594 34.117188 93.703125 33.894531 C 93.070312 32.566406 92.375 31.265625 91.617188 30.003906 C 90.855469 28.742188 90.035156 27.519531 89.15625 26.335938 C 88.277344 25.152344 87.34375 24.015625 86.351562 22.925781 C 85.359375 21.832031 84.316406 20.792969 83.222656 19.804688 C 82.132812 18.816406 80.992188 17.882812 79.808594 17.007812 C 78.621094 16.132812 77.398438 15.316406 76.132812 14.558594 C 74.867188 13.800781 73.566406 13.109375 72.234375 12.480469 C 70.902344 11.851562 69.539062 11.289062 68.152344 10.796875 C 66.765625 10.300781 65.355469 9.875 63.925781 9.519531 C 62.496094 9.160156 61.050781 8.875 59.59375 8.660156 C 58.132812 8.445312 56.667969 8.304688 55.195312 8.230469 C 53.722656 8.160156 52.253906 8.164062 50.78125 8.234375 C 49.308594 8.308594 47.84375 8.457031 46.386719 8.671875 C 44.925781 8.890625 43.484375 9.179688 42.054688 9.539062 C 40.625 9.898438 39.214844 10.328125 37.828125 10.824219 C 36.441406 11.320312 35.082031 11.886719 33.75 12.519531 C 33.8125 12.222656 33.871094 11.925781 33.921875 11.625 C 35.273438 11.003906 36.648438 10.453125 38.054688 9.964844 C 39.460938 9.480469 40.886719 9.0625 42.332031 8.714844 C 43.777344 8.367188 45.234375 8.089844 46.707031 7.886719 C 48.179688 7.679688 49.660156 7.546875 51.144531 7.484375 C 52.632812 7.425781 54.117188 7.4375 55.601562 7.519531 C 57.085938 7.601562 58.5625 7.757812 60.03125 7.984375 C 61.5 8.214844 62.957031 8.511719 64.394531 8.882812 C 65.835938 9.25 67.253906 9.6875 68.652344 10.195312 C 70.050781 10.703125 71.417969 11.277344 72.761719 11.917969 C 74.101562 12.558594 75.410156 13.265625 76.683594 14.03125 C 77.953125 14.800781 79.1875 15.628906 80.378906 16.519531 C 81.570312 17.40625 82.71875 18.351562 83.816406 19.351562 C 84.917969 20.351562 85.964844 21.402344 86.964844 22.503906 C 87.960938 23.609375 88.902344 24.757812 89.789062 25.949219 C 90.675781 27.144531 91.5 28.378906 92.265625 29.652344 C 93.03125 30.929688 93.730469 32.238281 94.371094 33.582031 C 94.464844 33.78125 94.558594 33.988281 94.652344 34.191406 Z M 94.007812 34.558594 " fill-opacity="1" fill-rule="evenodd"/></g></g></g></g></g></g><g fill="#000000" fill-opacity="1"><g transform="translate(105.641128, 226.496939)"><g><path d="M 7.59375 -9.484375 L 7.59375 -8.03125 L 2.828125 -8.03125 L 2.828125 -5.5 L 7.078125 -5.5 L 7.078125 -4.046875 L 2.828125 -4.046875 L 2.828125 -1.453125 L 7.78125 -1.453125 L 7.78125 0 L 1.296875 0 L 1.296875 -9.484375 Z M 7.59375 -9.484375 "/></g></g></g><g fill="#000000" fill-opacity="1"><g transform="translate(119.429053, 226.496939)"><g><path d="M 8.984375 -9.484375 L 4.734375 0.4375 L 0.484375 -9.484375 L 2.296875 -9.484375 L 4.796875 -3.25 L 7.1875 -9.484375 Z M 8.984375 -9.484375 "/></g></g></g><g fill="#000000" fill-opacity="1"><g transform="translate(134.103165, 226.496939)"><g><path d="M 7.59375 -9.484375 L 7.59375 -8.03125 L 2.828125 -8.03125 L 2.828125 -5.5 L 7.078125 -5.5 L 7.078125 -4.046875 L 2.828125 -4.046875 L 2.828125 -1.453125 L 7.78125 -1.453125 L 7.78125 0 L 1.296875 0 L 1.296875 -9.484375 Z M 7.59375 -9.484375 "/></g></g></g><g fill="#000000" fill-opacity="1"><g transform="translate(147.891091, 226.496939)"><g><path d="M 9.6875 -9.484375 L 9.6875 0.34375 L 9.640625 0.34375 L 2.796875 -6.296875 L 2.84375 0 L 1.296875 0 L 1.296875 -9.8125 L 1.375 -9.8125 L 8.203125 -3.09375 L 8.171875 -9.484375 Z M 9.6875 -9.484375 "/></g></g></g><g fill="#000000" fill-opacity="1"><g transform="translate(164.102979, 226.496939)"><g><path d="M 6.96875 -9.484375 L 6.96875 -8.03125 L 4.515625 -8.03125 L 4.515625 0 L 3.015625 0 L 3.015625 -8.03125 L 0.625 -8.03125 L 0.625 -9.484375 Z M 6.96875 -9.484375 "/></g></g></g><g fill="#000000" fill-opacity="1"><g transform="translate(176.913492, 226.496939)"><g/></g></g><g fill="#000000" fill-opacity="1"><g transform="translate(186.296569, 226.496939)"><g><path d="M 6.484375 0 L 4.359375 -3.296875 L 2.828125 -3.296875 L 2.828125 0 L 1.296875 0 L 1.296875 -9.484375 L 3.96875 -9.484375 C 5.03125 -9.484375 5.878906 -9.210938 6.515625 -8.671875 C 7.160156 -8.140625 7.484375 -7.394531 7.484375 -6.4375 C 7.484375 -5.851562 7.359375 -5.3125 7.109375 -4.8125 C 6.859375 -4.3125 6.46875 -3.925781 5.9375 -3.65625 L 8.25 0 Z M 2.828125 -4.75 L 4.1875 -4.75 C 4.789062 -4.75 5.226562 -4.914062 5.5 -5.25 C 5.78125 -5.59375 5.921875 -5.972656 5.921875 -6.390625 C 5.921875 -6.628906 5.867188 -6.875 5.765625 -7.125 C 5.660156 -7.375 5.476562 -7.585938 5.21875 -7.765625 C 4.96875 -7.941406 4.640625 -8.03125 4.234375 -8.03125 L 2.828125 -8.03125 Z M 2.828125 -4.75 "/></g></g></g><g fill="#000000" fill-opacity="1"><g transform="translate(200.240878, 226.496939)"><g><path d="M 7.59375 -9.484375 L 7.59375 -8.03125 L 2.828125 -8.03125 L 2.828125 -5.5 L 7.078125 -5.5 L 7.078125 -4.046875 L 2.828125 -4.046875 L 2.828125 -1.453125 L 7.78125 -1.453125 L 7.78125 0 L 1.296875 0 L 1.296875 -9.484375 Z M 7.59375 -9.484375 "/></g></g></g><g fill="#000000" fill-opacity="1"><g transform="translate(214.028807, 226.496939)"><g><path d="M 9.6875 -9.484375 L 9.6875 0.34375 L 9.640625 0.34375 L 2.796875 -6.296875 L 2.84375 0 L 1.296875 0 L 1.296875 -9.8125 L 1.375 -9.8125 L 8.203125 -3.09375 L 8.171875 -9.484375 Z M 9.6875 -9.484375 "/></g></g></g><g fill="#000000" fill-opacity="1"><g transform="translate(230.240699, 226.496939)"><g><path d="M 6.96875 -9.484375 L 6.96875 -8.03125 L 4.515625 -8.03125 L 4.515625 0 L 3.015625 0 L 3.015625 -8.03125 L 0.625 -8.03125 L 0.625 -9.484375 Z M 6.96875 -9.484375 "/></g></g></g><g fill="#000000" fill-opacity="1"><g transform="translate(243.051216, 226.496939)"><g><path d="M 6.171875 -2.234375 L 2.71875 -2.234375 L 1.8125 0 L 0.3125 0 L 4.515625 -9.875 L 4.59375 -9.875 L 8.796875 0 L 7.046875 0 Z M 5.671875 -3.53125 L 4.484375 -6.53125 L 3.25 -3.53125 Z M 5.671875 -3.53125 "/></g></g></g><g fill="#000000" fill-opacity="1"><g transform="translate(257.373461, 226.496939)"><g><path d="M 2.828125 -9.484375 L 2.828125 -1.453125 L 7.5 -1.453125 L 7.5 0 L 1.296875 0 L 1.296875 -9.484375 Z M 2.828125 -9.484375 "/></g></g></g><g fill="#000000" fill-opacity="1"><g transform="translate(270.796495, 226.496939)"><g><path d="M 6.28125 -7.5625 C 5.46875 -7.988281 4.742188 -8.203125 4.109375 -8.203125 C 3.640625 -8.203125 3.265625 -8.097656 2.984375 -7.890625 C 2.710938 -7.679688 2.578125 -7.394531 2.578125 -7.03125 C 2.578125 -6.664062 2.75 -6.363281 3.09375 -6.125 C 3.4375 -5.882812 3.914062 -5.648438 4.53125 -5.421875 C 5 -5.253906 5.398438 -5.0625 5.734375 -4.84375 C 6.066406 -4.632812 6.34375 -4.347656 6.5625 -3.984375 C 6.78125 -3.617188 6.890625 -3.160156 6.890625 -2.609375 C 6.890625 -2.097656 6.765625 -1.640625 6.515625 -1.234375 C 6.265625 -0.828125 5.898438 -0.5 5.421875 -0.25 C 4.941406 -0.0078125 4.378906 0.109375 3.734375 0.109375 C 3.148438 0.109375 2.582031 0.0195312 2.03125 -0.15625 C 1.476562 -0.34375 0.984375 -0.59375 0.546875 -0.90625 L 1.21875 -2.078125 C 1.539062 -1.835938 1.921875 -1.632812 2.359375 -1.46875 C 2.796875 -1.3125 3.203125 -1.234375 3.578125 -1.234375 C 4.046875 -1.234375 4.453125 -1.34375 4.796875 -1.5625 C 5.140625 -1.789062 5.3125 -2.132812 5.3125 -2.59375 C 5.3125 -2.957031 5.164062 -3.257812 4.875 -3.5 C 4.582031 -3.75 4.175781 -3.972656 3.65625 -4.171875 C 3.125 -4.367188 2.675781 -4.566406 2.3125 -4.765625 C 1.957031 -4.960938 1.648438 -5.234375 1.390625 -5.578125 C 1.140625 -5.929688 1.015625 -6.375 1.015625 -6.90625 C 1.015625 -7.675781 1.273438 -8.296875 1.796875 -8.765625 C 2.328125 -9.242188 3.023438 -9.5 3.890625 -9.53125 C 4.515625 -9.53125 5.0625 -9.457031 5.53125 -9.3125 C 6 -9.175781 6.441406 -8.976562 6.859375 -8.71875 Z M 6.28125 -7.5625 "/></g></g></g><g fill="#000000" fill-opacity="1"><g transform="translate(5.644832, 204.608382)"><g><path d="M 12.4375 -28.765625 C 15.945312 -28.765625 18.664062 -27.898438 20.59375 -26.171875 C 22.53125 -24.441406 23.5 -22.078125 23.5 -19.078125 C 23.5 -17.359375 23.164062 -15.75 22.5 -14.25 C 21.832031 -12.75 20.75 -11.515625 19.25 -10.546875 C 17.75 -9.585938 15.816406 -9.109375 13.453125 -9.109375 L 9.375 -9.109375 L 9.375 0 L 3.71875 0 L 3.71875 -28.765625 Z M 13.40625 -14.625 C 14.476562 -14.625 15.335938 -14.863281 15.984375 -15.34375 C 16.640625 -15.820312 17.109375 -16.382812 17.390625 -17.03125 C 17.679688 -17.6875 17.828125 -18.316406 17.828125 -18.921875 C 17.828125 -19.941406 17.523438 -20.925781 16.921875 -21.875 C 16.328125 -22.820312 15.171875 -23.296875 13.453125 -23.296875 L 9.375 -23.296875 L 9.375 -14.625 Z M 13.40625 -14.625 "/></g></g></g><g fill="#000000" fill-opacity="1"><g transform="translate(61.786681, 204.608382)"><g><path d="M 19.234375 0 L 13.171875 -9.140625 L 9.375 -9.140625 L 9.375 0 L 3.71875 0 L 3.71875 -28.765625 L 12.4375 -28.765625 C 16 -28.765625 18.765625 -27.898438 20.734375 -26.171875 C 22.703125 -24.441406 23.6875 -22.078125 23.6875 -19.078125 C 23.6875 -17.304688 23.316406 -15.644531 22.578125 -14.09375 C 21.835938 -12.539062 20.695312 -11.320312 19.15625 -10.4375 L 25.84375 0 Z M 9.375 -14.625 L 13.40625 -14.625 C 14.945312 -14.625 16.066406 -15.070312 16.765625 -15.96875 C 17.472656 -16.863281 17.828125 -17.832031 17.828125 -18.875 C 17.828125 -19.925781 17.523438 -20.925781 16.921875 -21.875 C 16.328125 -22.820312 15.171875 -23.296875 13.453125 -23.296875 L 9.375 -23.296875 Z M 9.375 -14.625 "/></g></g></g><g fill="#000000" fill-opacity="1"><g transform="translate(119.883337, 204.608382)"><g><path d="M 23.34375 -28.765625 L 23.34375 -23.296875 L 9.375 -23.296875 L 9.375 -17.15625 L 21.734375 -17.15625 L 21.734375 -11.6875 L 9.375 -11.6875 L 9.375 -5.46875 L 23.890625 -5.46875 L 23.890625 0 L 3.71875 0 L 3.71875 -28.765625 Z M 23.34375 -28.765625 "/></g></g></g><g fill="#000000" fill-opacity="1"><g transform="translate(177.198064, 204.608382)"><g><path d="M 25.296875 -2.390625 C 24.566406 -1.785156 23.40625 -1.179688 21.8125 -0.578125 C 20.21875 0.015625 18.484375 0.3125 16.609375 0.3125 C 13.617188 0.3125 11.015625 -0.335938 8.796875 -1.640625 C 6.578125 -2.941406 4.878906 -4.691406 3.703125 -6.890625 C 2.535156 -9.097656 1.953125 -11.519531 1.953125 -14.15625 C 1.953125 -17.039062 2.535156 -19.617188 3.703125 -21.890625 C 4.878906 -24.160156 6.523438 -25.925781 8.640625 -27.1875 C 10.753906 -28.445312 13.191406 -29.078125 15.953125 -29.078125 C 17.691406 -29.078125 19.304688 -28.84375 20.796875 -28.375 C 22.285156 -27.90625 23.585938 -27.320312 24.703125 -26.625 L 22.484375 -21.265625 C 20.421875 -22.828125 18.304688 -23.609375 16.140625 -23.609375 C 14.679688 -23.609375 13.3125 -23.203125 12.03125 -22.390625 C 10.757812 -21.585938 9.742188 -20.488281 8.984375 -19.09375 C 8.234375 -17.695312 7.859375 -16.15625 7.859375 -14.46875 C 7.859375 -12.613281 8.207031 -10.988281 8.90625 -9.59375 C 9.613281 -8.195312 10.617188 -7.109375 11.921875 -6.328125 C 13.222656 -5.546875 14.75 -5.15625 16.5 -5.15625 C 17.90625 -5.15625 19.164062 -5.382812 20.28125 -5.84375 C 21.40625 -6.300781 22.296875 -6.84375 22.953125 -7.46875 Z M 25.296875 -2.390625 "/></g></g></g><g fill="#000000" fill-opacity="1"><g transform="translate(235.724791, 204.608382)"><g><path d="M 9.375 -28.765625 L 9.375 0 L 3.71875 0 L 3.71875 -28.765625 Z M 9.375 -28.765625 "/></g></g></g><g fill="#000000" fill-opacity="1"><g transform="translate(280.098722, 204.608382)"><g><path d="M 19.078125 -21.8125 C 16.578125 -23.195312 14.398438 -23.890625 12.546875 -23.890625 C 11.296875 -23.890625 10.320312 -23.640625 9.625 -23.140625 C 8.9375 -22.648438 8.59375 -21.910156 8.59375 -20.921875 C 8.59375 -20.003906 9.09375 -19.195312 10.09375 -18.5 C 11.101562 -17.8125 12.441406 -17.15625 14.109375 -16.53125 C 15.460938 -16.039062 16.617188 -15.472656 17.578125 -14.828125 C 18.546875 -14.191406 19.347656 -13.3125 19.984375 -12.1875 C 20.628906 -11.070312 20.953125 -9.65625 20.953125 -7.9375 C 20.953125 -6.445312 20.566406 -5.070312 19.796875 -3.8125 C 19.023438 -2.550781 17.894531 -1.546875 16.40625 -0.796875 C 14.925781 -0.0546875 13.160156 0.3125 11.109375 0.3125 C 9.378906 0.3125 7.664062 0.0546875 5.96875 -0.453125 C 4.28125 -0.960938 2.707031 -1.738281 1.25 -2.78125 L 3.75 -7.1875 C 4.738281 -6.457031 5.867188 -5.859375 7.140625 -5.390625 C 8.421875 -4.921875 9.570312 -4.6875 10.59375 -4.6875 C 11.789062 -4.6875 12.832031 -4.941406 13.71875 -5.453125 C 14.601562 -5.960938 15.046875 -6.789062 15.046875 -7.9375 C 15.046875 -9.425781 13.65625 -10.71875 10.875 -11.8125 C 9.226562 -12.457031 7.859375 -13.078125 6.765625 -13.671875 C 5.671875 -14.273438 4.722656 -15.132812 3.921875 -16.25 C 3.128906 -17.375 2.734375 -18.785156 2.734375 -20.484375 C 2.734375 -22.960938 3.546875 -24.957031 5.171875 -26.46875 C 6.804688 -27.976562 8.976562 -28.796875 11.6875 -28.921875 C 13.820312 -28.921875 15.601562 -28.679688 17.03125 -28.203125 C 18.46875 -27.722656 19.867188 -27.039062 21.234375 -26.15625 Z M 19.078125 -21.8125 "/></g></g></g><g fill="#000000" fill-opacity="1"><g transform="translate(334.168495, 204.608382)"><g><path d="M 23.34375 -28.765625 L 23.34375 -23.296875 L 9.375 -23.296875 L 9.375 -17.15625 L 21.734375 -17.15625 L 21.734375 -11.6875 L 9.375 -11.6875 L 9.375 -5.46875 L 23.890625 -5.46875 L 23.890625 0 L 3.71875 0 L 3.71875 -28.765625 Z M 23.34375 -28.765625 "/></g></g></g><g clip-path="url(#44edc1e0af)"><g clip-path="url(#32e94b4eb6)"><g clip-path="url(#49bea0749d)"><path fill="#3d3b3a" d="M 175.09375 173.921875 C 175.605469 173.382812 176.140625 172.867188 176.699219 172.375 C 177.261719 171.886719 177.84375 171.425781 178.449219 170.992188 C 179.054688 170.558594 179.683594 170.15625 180.328125 169.78125 C 180.972656 169.410156 181.632812 169.070312 182.3125 168.761719 C 182.988281 168.453125 183.679688 168.179688 184.382812 167.9375 C 185.089844 167.699219 185.804688 167.492188 186.527344 167.320312 C 187.253906 167.148438 187.984375 167.015625 188.722656 166.914062 C 189.460938 166.8125 190.203125 166.75 190.945312 166.722656 C 191.6875 166.691406 192.433594 166.703125 193.175781 166.746094 C 193.917969 166.789062 194.660156 166.871094 195.394531 166.984375 C 196.128906 167.101562 196.859375 167.253906 197.578125 167.441406 C 198.300781 167.628906 199.011719 167.847656 199.710938 168.105469 C 200.410156 168.359375 201.09375 168.648438 201.765625 168.972656 C 202.4375 169.292969 203.089844 169.648438 203.726562 170.035156 C 204.363281 170.421875 204.980469 170.835938 205.574219 171.285156 C 206.171875 171.730469 206.746094 172.203125 207.296875 172.707031 C 207.398438 172.796875 207.5 172.894531 207.601562 172.992188 L 207.371094 173.28125 C 207.265625 173.179688 207.15625 173.078125 207.046875 172.980469 C 206.5 172.480469 205.933594 172.011719 205.339844 171.570312 C 204.75 171.128906 204.136719 170.714844 203.507812 170.335938 C 202.875 169.953125 202.226562 169.601562 201.5625 169.285156 C 200.894531 168.964844 200.214844 168.679688 199.523438 168.429688 C 198.828125 168.175781 198.125 167.960938 197.410156 167.777344 C 196.691406 167.59375 195.972656 167.445312 195.242188 167.335938 C 194.511719 167.222656 193.777344 167.148438 193.042969 167.105469 C 192.304688 167.066406 191.566406 167.0625 190.832031 167.09375 C 190.09375 167.125 189.359375 167.195312 188.628906 167.300781 C 187.898438 167.402344 187.175781 167.542969 186.457031 167.71875 C 185.738281 167.890625 185.035156 168.101562 184.335938 168.347656 C 183.640625 168.589844 182.957031 168.867188 182.289062 169.179688 C 181.617188 169.492188 180.964844 169.832031 180.332031 170.207031 C 179.695312 170.582031 179.078125 170.988281 178.484375 171.425781 C 177.886719 171.859375 177.316406 172.324219 176.765625 172.816406 C 176.214844 173.304688 175.6875 173.824219 175.1875 174.367188 C 175.160156 174.21875 175.128906 174.070312 175.09375 173.925781 Z M 176.316406 206.113281 C 176.402344 206.199219 176.492188 206.28125 176.582031 206.363281 C 177.128906 206.863281 177.699219 207.332031 178.292969 207.777344 C 178.882812 208.21875 179.496094 208.632812 180.128906 209.015625 C 180.765625 209.398438 181.414062 209.746094 182.082031 210.066406 C 182.75 210.382812 183.433594 210.667969 184.128906 210.921875 C 184.824219 211.171875 185.53125 211.390625 186.246094 211.570312 C 186.964844 211.753906 187.6875 211.902344 188.417969 212.011719 C 189.152344 212.125 189.886719 212.199219 190.625 212.238281 C 191.363281 212.277344 192.101562 212.277344 192.84375 212.246094 C 193.582031 212.210938 194.316406 212.140625 195.050781 212.035156 C 195.78125 211.929688 196.507812 211.789062 197.226562 211.613281 C 197.945312 211.433594 198.652344 211.222656 199.347656 210.976562 C 200.046875 210.730469 200.730469 210.449219 201.402344 210.136719 C 202.070312 209.820312 202.722656 209.476562 203.359375 209.097656 C 203.996094 208.71875 204.613281 208.3125 205.207031 207.871094 C 205.804688 207.433594 206.375 206.96875 206.925781 206.472656 C 207.476562 205.976562 208 205.457031 208.5 204.910156 C 208.527344 205.058594 208.558594 205.210938 208.589844 205.359375 C 208.082031 205.902344 207.546875 206.421875 206.984375 206.914062 C 206.425781 207.40625 205.839844 207.871094 205.234375 208.308594 C 204.628906 208.742188 204.003906 209.148438 203.359375 209.523438 C 202.714844 209.898438 202.050781 210.242188 201.375 210.554688 C 200.695312 210.863281 200.003906 211.140625 199.296875 211.382812 C 198.589844 211.625 197.875 211.835938 197.148438 212.007812 C 196.421875 212.179688 195.691406 212.320312 194.953125 212.421875 C 194.210938 212.523438 193.46875 212.589844 192.722656 212.617188 C 191.976562 212.648438 191.234375 212.640625 190.488281 212.597656 C 189.742188 212.554688 189 212.476562 188.265625 212.359375 C 187.527344 212.246094 186.796875 212.09375 186.074219 211.90625 C 185.351562 211.722656 184.640625 211.5 183.9375 211.246094 C 183.238281 210.988281 182.550781 210.699219 181.878906 210.375 C 181.203125 210.054688 180.546875 209.699219 179.910156 209.3125 C 179.273438 208.925781 178.652344 208.507812 178.054688 208.0625 C 177.457031 207.613281 176.882812 207.140625 176.332031 206.636719 C 176.25 206.5625 176.167969 206.484375 176.085938 206.40625 Z M 176.316406 206.113281 " fill-opacity="1" fill-rule="evenodd"/></g></g></g></svg>